# xmcd
#
# Track frame offsets: 
#        150
#        20444
#        44852
#        66538
#        80149
#        106597
#        126427
#        141351
#        172332
#        194618
#        209093
#        237611
#
# Disc length: 3388 seconds
#
# Revision: 0
# Processed by: cddbd v1.5.2PL0 Copyright (c) Steve Scherf et al.
# Submitted via: ExactAudioCopy v0.95b4
#
DISCID=cc0d3a0c
DTITLE=Jimmy LaFave - Cimarron Manifesto
DYEAR=2007
DGENRE=Country
TTITLE0=Car Outside
TTITLE1=Catch The Wind
TTITLE2=This Land 
TTITLE3=Truth
TTITLE4=Lucky Man
TTITLE5=Hideaway Girl 
TTITLE6=That's The Way It Goes 
TTITLE7=Not Dark Yet
TTITLE8=Walk A Mile In My Shoes
TTITLE9=Don't Ask Me 
TTITLE10=Home Once Again 
TTITLE11=These Blues 
EXTD=
EXTT0=
EXTT1=
EXTT2=
EXTT3=
EXTT4=
EXTT5=
EXTT6=
EXTT7=
EXTT8=
EXTT9=
EXTT10=
EXTT11=
PLAYORDER=
